<?xml version="1.0" encoding="UTF-8" standalone="no"?>
<!-- Created with Inkscape (http://www.inkscape.org/) -->

<svg
   xmlns:dc="http://purl.org/dc/elements/1.1/"
   xmlns:cc="http://creativecommons.org/ns#"
   xmlns:rdf="http://www.w3.org/1999/02/22-rdf-syntax-ns#"
   xmlns:svg="http://www.w3.org/2000/svg"
   xmlns="http://www.w3.org/2000/svg"
   xmlns:xlink="http://www.w3.org/1999/xlink"
   xmlns:sodipodi="http://sodipodi.sourceforge.net/DTD/sodipodi-0.dtd"
   xmlns:inkscape="http://www.inkscape.org/namespaces/inkscape"
   width="874.46753"
   height="1045.2423"
   id="svg2"
   sodipodi:version="0.32"
   inkscape:version="0.91 r13725"
   version="1.0"
   sodipodi:docname="logotype_sv.svg"
   inkscape:output_extension="org.inkscape.output.svg.inkscape"
   inkscape:export-filename="/home/smika/pionjar/lappar/planscher/plansch0/plansch0b-hires.png"
   inkscape:export-xdpi="300.01077"
   inkscape:export-ydpi="300.01077">
  <sodipodi:namedview
     id="base"
     pagecolor="#ffffff"
     bordercolor="#666666"
     borderopacity="1.0"
     gridtolerance="10000"
     guidetolerance="39.8"
     objecttolerance="10"
     inkscape:pageopacity="0.0"
     inkscape:pageshadow="2"
     inkscape:zoom="0.66386034"
     inkscape:cx="56.655335"
     inkscape:cy="591.03802"
     inkscape:document-units="px"
     inkscape:current-layer="layer1"
     width="744.09449px"
     height="1052.3622px"
     showguides="true"
     inkscape:guide-bbox="false"
     units="mm"
     inkscape:window-width="2519"
     inkscape:window-height="1416"
     inkscape:window-x="41"
     inkscape:window-y="24"
     inkscape:grid-points="false"
     inkscape:guide-points="false"
     showgrid="false"
     inkscape:window-maximized="1"
     fit-margin-top="40"
     fit-margin-left="40"
     fit-margin-right="40"
     fit-margin-bottom="40" />
  <defs
     id="defs4">
    <inkscape:perspective
       sodipodi:type="inkscape:persp3d"
       id="perspective317"
       inkscape:vp_x="-50 : 600 : 1"
       inkscape:vp_y="0 : 1000 : 0"
       inkscape:vp_z="700 : 600 : 1"
       inkscape:persp3d-origin="300 : 400 : 1" />
    <defs
       id="defs552">
      <linearGradient
         id="linearGradient585">
        <stop
           offset="0"
           style="stop-color:#000;stop-opacity:1;"
           id="stop586" />
        <stop
           offset="1"
           style="stop-color:#fff;stop-opacity:1;"
           id="stop587" />
      </linearGradient>
      <radialGradient
         id="radialGradient588"
         xlink:href="#linearGradient585" />
      <linearGradient
         id="linearGradient636"
         xlink:href="#linearGradient585" />
      <linearGradient
         id="linearGradient637"
         xlink:href="#linearGradient585" />
      <defs
         id="defs683" />
      <sodipodi:namedview
         id="namedview691"
         gridtolerance="15px"
         guidetolerance="20px"
         snaptogrid="false"
         snaptoguides="true"
         showgrid="true"
         showborder="false">
        <sodipodi:guide
           id="guide563"
           orientation="vertical"
           position="-353.891418" />
        <sodipodi:guide
           id="guide564"
           orientation="vertical"
           position="-218.868240" />
        <sodipodi:guide
           id="guide565"
           orientation="vertical"
           position="-130.667603" />
        <sodipodi:guide
           id="guide566"
           orientation="vertical"
           position="-71.867180" />
        <sodipodi:guide
           id="guide567"
           orientation="vertical"
           position="-13.066760" />
        <sodipodi:guide
           id="guide568"
           orientation="vertical"
           position="75.133873" />
        <sodipodi:guide
           id="guide569"
           orientation="vertical"
           position="140.467667" />
        <sodipodi:guide
           id="guide570"
           orientation="vertical"
           position="211.813034" />
        <sodipodi:guide
           id="guide571"
           orientation="horizontal"
           position="921.206604" />
        <sodipodi:guide
           id="guide572"
           orientation="horizontal"
           position="852.614502" />
        <sodipodi:guide
           id="guide573"
           orientation="horizontal"
           position="638.093445" />
        <sodipodi:guide
           id="guide574"
           orientation="vertical"
           position="-285.290924" />
        <sodipodi:guide
           id="guide575"
           orientation="horizontal"
           position="697.982788" />
        <sodipodi:guide
           id="guide576"
           orientation="horizontal"
           position="580.381958" />
        <sodipodi:guide
           id="guide577"
           orientation="horizontal"
           position="492.181305" />
        <sodipodi:guide
           id="guide578"
           orientation="horizontal"
           position="426.847504" />
        <sodipodi:guide
           id="guide579"
           orientation="horizontal"
           position="354.980316" />
        <sodipodi:guide
           id="guide580"
           orientation="horizontal"
           position="786.183411" />
        <sodipodi:guide
           id="guide583"
           orientation="horizontal"
           position="1008.15594" />
        <sodipodi:guide
           id="guide584"
           orientation="vertical"
           position="-442.788116" />
        <sodipodi:guide
           id="guide585"
           orientation="horizontal"
           position="272.677429" />
        <sodipodi:guide
           id="guide586"
           orientation="vertical"
           position="295.192078" />
      </sodipodi:namedview>
    </defs>
  </defs>
  <metadata
     id="metadata7">
    <rdf:RDF>
      <cc:Work
         rdf:about="">
        <dc:format>image/svg+xml</dc:format>
        <dc:type
           rdf:resource="http://purl.org/dc/dcmitype/StillImage" />
        <dc:title />
        <dc:date />
        <dc:creator>
          <cc:Agent>
            <dc:title />
          </cc:Agent>
        </dc:creator>
        <dc:rights>
          <cc:Agent>
            <dc:title />
          </cc:Agent>
        </dc:rights>
        <dc:publisher>
          <cc:Agent>
            <dc:title />
          </cc:Agent>
        </dc:publisher>
        <dc:identifier />
        <dc:source />
        <dc:relation />
        <dc:language />
        <dc:subject>
          <rdf:Bag />
        </dc:subject>
        <dc:coverage />
        <dc:description />
        <dc:contributor>
          <cc:Agent>
            <dc:title />
          </cc:Agent>
        </dc:contributor>
        <cc:license
           rdf:resource="" />
      </cc:Work>
      <cc:Work
         rdf:about="">
        <dc:format>image/svg+xml</dc:format>
        <dc:type
           rdf:resource="http://purl.org/dc/dcmitype/StillImage" />
      </cc:Work>
    </rdf:RDF>
  </metadata>
  <g
     inkscape:label="text_barnledar2008"
     style="display:inline"
     id="layer1"
     inkscape:groupmode="layer"
     transform="translate(64.579689,-0.72770055)">
    <path
       id="path4246"
       style="font-style:normal;font-variant:normal;font-weight:normal;font-stretch:normal;font-size:medium;line-height:125%;font-family:'URW Gothic L';text-align:start;writing-mode:lr-tb;text-anchor:start;fill:#000000;fill-opacity:1.0;stroke:none"
       d="m 658.7291,895.20507 3.04611,0 0,-13.40201 c 0,-4.28528 2.14051,-6.638 6.38036,-7.05812 l 0,-3.06692 c -3.25192,0.16805 -5.18662,1.30239 -6.38036,3.82314 l 0,-3.27697 -3.04611,0 0,22.98088 z m -5.21106,-22.98088 -3.04609,0 0,4.07521 c -2.22284,-3.19295 -4.9808,-4.62138 -8.89134,-4.62138 -6.75083,0 -11.85511,5.20957 -11.85511,12.09962 0,6.84805 5.14545,11.97358 12.06092,11.97358 3.82822,0 6.29803,-1.30239 8.68553,-4.57936 l 0,4.03321 3.04609,0 0,-22.98088 z m -11.85511,2.31068 c 4.93963,0 8.80902,3.9492 8.80902,9.07472 0,5.20957 -3.78706,9.28478 -8.64436,9.28478 -5.10428,0 -9.01483,-4.07521 -9.01483,-9.32678 0,-4.9995 3.95171,-9.03272 8.85017,-9.03272 z m -16.2937,-2.31068 -3.0461,0 0,4.07521 c -2.264,-3.15094 -5.02196,-4.62138 -8.80901,-4.62138 -6.58618,0 -11.5258,5.20957 -11.5258,12.14164 0,6.72201 5.14544,11.93156 11.73162,11.93156 4.03403,0 6.83315,-1.68049 8.60319,-5.20955 l 0,1.55446 c 0,2.26868 -0.24699,3.69711 -0.90559,5.12553 -1.19376,2.64679 -3.91055,4.15925 -7.36829,4.15925 -2.51098,0 -4.44567,-0.75622 -6.05104,-2.3107 -0.78211,-0.7142 -1.23491,-1.38641 -2.22284,-3.15094 l -2.96378,0 c 1.64654,5.37761 5.63942,8.31849 11.31998,8.31849 3.91054,0 7.20363,-1.51246 9.13833,-4.11723 1.52305,-2.10063 2.09933,-4.53736 2.09933,-9.03271 l 0,-18.86363 z m -11.69046,2.31068 c 4.85731,0 8.64436,3.90718 8.64436,8.90667 0,5.37762 -3.70472,9.45283 -8.60319,9.45283 -4.93962,0 -8.64436,-3.9912 -8.64436,-9.32678 0,-5.25157 3.6224,-9.03272 8.60319,-9.03272 z m -35.91008,20.6702 3.0461,0 0,-12.64579 c 0,-2.56277 0.32931,-3.90718 1.19375,-5.20955 1.19374,-1.76453 3.29309,-2.81486 5.68057,-2.81486 2.22284,0 4.23985,0.92429 5.47476,2.47875 1.07025,1.42843 1.48189,3.10893 1.48189,6.13383 l 0,12.05762 3.0461,0 0,-12.05762 c 0,-3.86514 -0.53512,-5.92377 -1.97584,-7.89836 -1.77004,-2.26868 -4.48683,-3.57107 -7.65643,-3.57107 -2.96378,0 -5.35127,1.17636 -7.2448,3.52906 l 0,-2.98289 -3.0461,0 0,22.98088 z m -8.20055,0 3.04611,0 0,-22.98088 -3.04611,0 0,22.98088 z m 0,-25.75371 3.04611,0 0,-5.29358 -3.04611,0 0,5.29358 z m -25.08405,25.75371 3.04609,0 0,-12.64579 c 0,-2.56277 0.32931,-3.90718 1.19376,-5.20955 1.19374,-1.76453 3.29309,-2.81486 5.68056,-2.81486 2.22284,0 4.23986,0.92429 5.47476,2.47875 1.07025,1.42843 1.4819,3.10893 1.4819,6.13383 l 0,12.05762 3.0461,0 0,-12.05762 c 0,-3.86514 -0.53512,-5.92377 -1.97585,-7.89836 -1.77004,-2.26868 -4.48683,-3.57107 -7.65643,-3.57107 -2.96378,0 -5.35127,1.17636 -7.2448,3.52906 l 0,-2.98289 -3.04609,0 0,22.98088 z m -12.38124,0 3.0461,0 0,-13.40201 c 0,-4.28528 2.1405,-6.638 6.38035,-7.05812 l 0,-3.06692 c -3.25192,0.16805 -5.18661,1.30239 -6.38035,3.82314 l 0,-3.27697 -3.0461,0 0,22.98088 z m -5.21106,-22.98088 -3.04611,0 0,4.07521 c -2.22284,-3.19295 -4.98079,-4.62138 -8.89134,-4.62138 -6.75083,0 -11.85511,5.20957 -11.85511,12.09962 0,6.84805 5.14545,11.97358 12.06094,11.97358 3.8282,0 6.29802,-1.30239 8.68551,-4.57936 l 0,4.03321 3.04611,0 0,-22.98088 z m -11.85511,2.31068 c 4.93962,0 8.809,3.9492 8.809,9.07472 0,5.20957 -3.78706,9.28478 -8.64435,9.28478 -5.10429,0 -9.01483,-4.07521 -9.01483,-9.32678 0,-4.9995 3.95171,-9.03272 8.85018,-9.03272 z m -3.74589,-10.79722 0,5.29359 3.0461,0 0,-5.29359 -3.0461,0 z m 6.05105,0 0,5.29359 3.0461,0 0,-5.29359 -3.0461,0 z m -18.59886,8.48654 -3.04611,0 0,4.07521 c -2.26399,-3.15094 -5.02196,-4.62138 -8.809,-4.62138 -6.58618,0 -11.52581,5.20957 -11.52581,12.14164 0,6.72201 5.14545,11.93156 11.73161,11.93156 4.03405,0 6.83317,-1.68049 8.6032,-5.20955 l 0,1.55446 c 0,2.26868 -0.24698,3.69711 -0.9056,5.12553 -1.19374,2.64679 -3.91054,4.15925 -7.36829,4.15925 -2.51098,0 -4.44566,-0.75622 -6.05104,-2.3107 -0.78211,-0.7142 -1.23491,-1.38641 -2.22284,-3.15094 l -2.96377,0 c 1.64655,5.37761 5.63941,8.31849 11.31999,8.31849 3.91054,0 7.20363,-1.51246 9.13831,-4.11723 1.52305,-2.10063 2.09935,-4.53736 2.09935,-9.03271 l 0,-18.86363 z m -11.69046,2.31068 c 4.85731,0 8.64435,3.90718 8.64435,8.90667 0,5.37762 -3.70472,9.45283 -8.6032,9.45283 -4.93962,0 -8.64434,-3.9912 -8.64434,-9.32678 0,-5.25157 3.6224,-9.03272 8.60319,-9.03272 z m -27.45353,-2.31068 -3.04611,0 0,4.07521 c -2.22284,-3.19295 -4.98079,-4.62138 -8.89134,-4.62138 -6.75083,0 -11.85511,5.20957 -11.85511,12.09962 0,6.84805 5.14545,11.97358 12.06094,11.97358 3.8282,0 6.29802,-1.30239 8.68551,-4.57936 l 0,4.03321 3.04611,0 0,-22.98088 z m -11.85511,2.31068 c 4.93962,0 8.809,3.9492 8.809,9.07472 0,5.20957 -3.78705,9.28478 -8.64436,9.28478 -5.10428,0 -9.01482,-4.07521 -9.01482,-9.32678 0,-4.9995 3.95171,-9.03272 8.85018,-9.03272 z m -16.28215,-10.37709 -3.04612,0 0,11.7215 c -2.22283,-2.73082 -5.3101,-4.20126 -8.85016,-4.20126 -6.792,0 -11.9786,5.20957 -11.9786,12.05762 0,6.80603 5.3101,12.01558 12.26674,12.01558 3.74589,0 6.29803,-1.38641 8.56202,-4.7054 l 0,4.15925 3.04612,0 0,-31.04729 z m -11.97862,10.37709 c 4.98081,0 9.05599,4.07523 9.05599,9.11673 0,5.04151 -3.95169,9.24277 -8.76783,9.24277 -5.14545,0 -9.09716,-4.03321 -9.09716,-9.28478 0,-5.0415 3.91054,-9.07472 8.809,-9.07472 z m -27.01552,-2.85685 c -6.66849,0 -11.81394,5.16755 -11.81394,11.88957 0,7.0581 5.06311,12.18363 12.06092,12.18363 6.58617,0 11.44348,-5.08352 11.44348,-11.97358 0,-7.0161 -4.93963,-12.09962 -11.69046,-12.09962 z m 0,2.85685 c 4.93963,0 8.60319,3.9492 8.60319,9.28479 0,5.25157 -3.54006,9.07471 -8.43853,9.07471 -5.18662,0 -8.89134,-3.86516 -8.89134,-9.24277 0,-5.20955 3.74589,-9.11673 8.72668,-9.11673 z m -16.17021,-2.31068 -3.0461,0 0,4.07521 c -2.264,-3.15094 -5.02196,-4.62138 -8.80901,-4.62138 -6.58617,0 -11.5258,5.20957 -11.5258,12.14164 0,6.72201 5.14544,11.93156 11.73162,11.93156 4.03403,0 6.83315,-1.68049 8.60319,-5.20955 l 0,1.55446 c 0,2.26868 -0.24699,3.69711 -0.9056,5.12553 -1.19375,2.64679 -3.91054,4.15925 -7.36828,4.15925 -2.51098,0 -4.44567,-0.75622 -6.05104,-2.3107 -0.78211,-0.7142 -1.23491,-1.38641 -2.22284,-3.15094 l -2.96378,0 c 1.64654,5.37761 5.63941,8.31849 11.31998,8.31849 3.91054,0 7.20363,-1.51246 9.13832,-4.11723 1.52305,-2.10063 2.09934,-4.53736 2.09934,-9.03271 l 0,-18.86363 z m -11.69046,2.31068 c 4.85731,0 8.64436,3.90718 8.64436,8.90667 0,5.37762 -3.70472,9.45283 -8.60319,9.45283 -4.93963,0 -8.64436,-3.9912 -8.64436,-9.32678 0,-5.25157 3.6224,-9.03272 8.60319,-9.03272 z m -34.62373,20.6702 3.04611,0 0,-13.40201 c 0,-4.28528 2.1405,-6.638 6.38035,-7.05812 l 0,-3.06692 c -3.25192,0.16805 -5.18661,1.30239 -6.38035,3.82314 l 0,-3.27697 -3.04611,0 0,22.98088 z M 313.9995,871.67802 c -6.66849,0 -11.81394,5.16755 -11.81394,11.88957 0,7.0581 5.06311,12.18363 12.06093,12.18363 6.58617,0 11.44347,-5.08352 11.44347,-11.97358 0,-7.0161 -4.93963,-12.09962 -11.69046,-12.09962 z m 0,2.85685 c 4.93964,0 8.60319,3.9492 8.60319,9.28479 0,5.25157 -3.54006,9.07471 -8.43853,9.07471 -5.18662,0 -8.89134,-3.86516 -8.89134,-9.24277 0,-5.20955 3.74589,-9.11673 8.72668,-9.11673 z m -4.61031,-10.79722 0,5.29359 3.0461,0 0,-5.29359 -3.0461,0 z m 6.05104,0 0,5.29359 3.0461,0 0,-5.29359 -3.0461,0 z m -23.77002,31.46742 3.04609,0 0,-20.16604 5.59825,0 0,-2.81484 -5.59825,0 c -0.0412,-3.82314 1.44073,-5.20955 5.59825,-5.25157 l 0,-2.81484 c -5.80407,0 -8.72668,2.73081 -8.64434,8.06641 l -3.49891,0 0,2.81484 3.49891,0 0,20.16604 z m -28.96439,-23.52705 c -6.6685,0 -11.81394,5.16755 -11.81394,11.88957 0,7.0581 5.06312,12.18363 12.06093,12.18363 6.58616,0 11.44347,-5.08352 11.44347,-11.97358 0,-7.0161 -4.93963,-12.09962 -11.69046,-12.09962 z m 0,2.85685 c 4.93964,0 8.60319,3.9492 8.60319,9.28479 0,5.25157 -3.54006,9.07471 -8.43853,9.07471 -5.18662,0 -8.89134,-3.86516 -8.89134,-9.24277 0,-5.20955 3.74589,-9.11673 8.72668,-9.11673 z m -16.15864,-10.37709 -3.0461,0 0,11.7215 c -2.22283,-2.73082 -5.3101,-4.20126 -8.85018,-4.20126 -6.79198,0 -11.9786,5.20957 -11.9786,12.05762 0,6.80603 5.31011,12.01558 12.26676,12.01558 3.74589,0 6.29802,-1.38641 8.56202,-4.7054 l 0,4.15925 3.0461,0 0,-31.04729 z m -11.9786,10.37709 c 4.9808,0 9.05599,4.07523 9.05599,9.11673 0,5.04151 -3.95171,9.24277 -8.76784,9.24277 -5.14545,0 -9.09716,-4.03321 -9.09716,-9.28478 0,-5.0415 3.91054,-9.07472 8.80901,-9.07472 z m -15.2466,10.20906 c 0,-3.15094 -0.41164,-5.08352 -1.52306,-7.10012 -2.01702,-3.65509 -5.92756,-5.96579 -10.20856,-5.96579 -6.54501,0 -11.69046,5.25157 -11.69046,11.93157 0,6.80604 5.22777,12.14163 11.89628,12.14163 2.88144,0 5.59825,-1.09232 7.65641,-3.06692 1.60539,-1.55446 2.67564,-3.15094 3.29309,-5.0415 l -3.16958,0 c -1.27608,3.15094 -4.44568,5.25157 -7.86225,5.25157 -4.61032,0 -8.52086,-3.61308 -8.76785,-8.15044 l 20.37598,0 z m -20.29365,-2.81484 c 0.82327,-4.41131 4.23986,-7.39422 8.52086,-7.39422 4.36334,0 7.6976,2.81486 8.72668,7.39422 l -17.24754,0 z m -14.64524,13.27598 3.04612,0 0,-13.40201 c 0,-4.28528 2.1405,-6.638 6.38035,-7.05812 l 0,-3.06692 c -3.25193,0.16805 -5.18662,1.30239 -6.38035,3.82314 l 0,-3.27697 -3.04612,0 0,22.98088 z m -16.62558,-31.04729 -3.04609,0 0,11.7215 c -2.22284,-2.73082 -5.31011,-4.20126 -8.85019,-4.20126 -6.79198,0 -11.9786,5.20957 -11.9786,12.05762 0,6.80603 5.31011,12.01558 12.26676,12.01558 3.74589,0 6.29802,-1.38641 8.56203,-4.7054 l 0,4.15925 3.04609,0 0,-31.04729 z m -11.9786,10.37709 c 4.9808,0 9.05599,4.07523 9.05599,9.11673 0,5.04151 -3.95171,9.24277 -8.76784,9.24277 -5.14545,0 -9.09716,-4.03321 -9.09716,-9.28478 0,-5.0415 3.91054,-9.07472 8.80901,-9.07472 z m -19.2324,20.6702 3.04611,0 0,-22.98088 -3.04611,0 0,22.98088 z m 0,-25.75371 3.04611,0 0,-5.29358 -3.04611,0 0,5.29358 z m -11.23123,25.75371 3.04611,0 0,-20.16604 5.06311,0 0,-2.81484 -5.06311,0 0,-8.06641 -3.04611,0 0,8.06641 -4.85729,0 0,2.81484 4.85729,0 0,20.16604 z m -10.95851,0 3.04611,0 0,-31.04729 -3.04611,0 0,31.04729 z m -8.20056,0 3.0461,0 0,-31.04729 -3.0461,0 0,31.04729 z m -5.21106,-22.98088 -3.046094,0 0,4.07521 c -2.222837,-3.19295 -4.980793,-4.62138 -8.891334,-4.62138 -6.750832,0 -11.855113,5.20957 -11.855113,12.09962 0,6.84805 5.145448,11.97358 12.060921,11.97358 3.828221,0 6.298034,-1.30239 8.685526,-4.57936 l 0,4.03321 3.046094,0 0,-22.98088 z m -11.855108,2.31068 c 4.939626,0 8.809014,3.9492 8.809014,9.07472 0,5.20957 -3.787054,9.28478 -8.644359,9.28478 -5.10428,0 -9.014822,-4.07521 -9.014822,-9.32678 0,-4.9995 3.951709,-9.03272 8.850167,-9.03272 z m 578.769348,-102.80248 -8.15419,0 0,10.68863 c -5.95038,-8.37459 -13.33325,-12.12112 -23.80149,-12.12112 -18.0715,0 -31.73532,13.66381 -31.73532,31.7353 0,17.96131 13.77401,31.40473 32.28627,31.40473 10.24786,0 16.85939,-3.41594 23.25054,-12.01093 l 0,10.57844 8.15419,0 0,-60.27505 z m -31.7353,6.06056 c 13.22303,0 23.58111,10.35805 23.58111,23.80149 0,13.6638 -10.13768,24.35243 -23.14034,24.35243 -13.66382,0 -24.13207,-10.68863 -24.13207,-24.46262 0,-13.11285 10.57844,-23.6913 23.6913,-23.6913 z m -96.78997,54.21449 8.15422,0 0,-33.1678 c 0,-6.72172 0.88154,-10.24786 3.19557,-13.66382 3.19555,-4.62806 8.81536,-7.38287 15.20649,-7.38287 5.95038,0 11.34978,2.42423 14.65556,6.50134 2.86499,3.74653 3.9669,8.1542 3.9669,16.08803 l 0,31.62512 8.1542,0 0,-31.62512 c 0,-10.13765 -1.43249,-15.53708 -5.2892,-20.7161 -4.73827,-5.95037 -12.01094,-9.36632 -20.49572,-9.36632 -7.93384,0 -14.32497,3.08537 -19.3938,9.25613 l 0,-7.82364 -8.15422,0 0,60.27505 z m -33.14368,0 8.15421,0 0,-35.15125 c 0,-11.23959 5.72999,-17.41035 17.07976,-18.51227 l 0,-8.04402 c -8.70517,0.44076 -13.88419,3.41595 -17.07976,10.02747 l 0,-8.59498 -8.15421,0 0,60.27505 z m -11.28262,-27.43782 c 0,-8.2644 -1.10191,-13.33323 -4.07709,-18.62245 -5.39943,-9.58671 -15.86766,-15.64727 -27.32764,-15.64727 -17.52053,0 -31.29453,13.774 -31.29453,31.29454 0,17.85111 13.99438,31.84549 31.8455,31.84549 7.71344,0 14.98611,-2.86499 20.49571,-8.04401 4.29749,-4.0771 7.16249,-8.26441 8.81537,-13.22304 l -8.48479,0 c -3.41594,8.26439 -11.90074,13.77399 -21.04667,13.77399 -12.34153,0 -22.80976,-9.4765 -23.47091,-21.37725 l 54.54505,0 z m -54.32467,-7.38285 c 2.20384,-11.57017 11.34977,-19.39382 22.80976,-19.39382 11.68035,0 20.6059,7.38287 23.3607,19.39382 l -46.17046,0 z m -39.20427,34.82067 8.15422,0 0,-35.15125 c 0,-11.23959 5.72998,-17.41035 17.07975,-18.51227 l 0,-8.04402 c -8.70516,0.44076 -13.88419,3.41595 -17.07975,10.02747 l 0,-8.59498 -8.15422,0 0,60.27505 z m -13.94963,-60.27505 -8.15421,0 0,10.68863 c -5.95038,-8.37459 -13.33323,-12.12112 -23.80148,-12.12112 -18.07149,0 -31.73531,13.66381 -31.73531,31.7353 0,17.96131 13.774,31.40473 32.28626,31.40473 10.24786,0 16.85938,-3.41594 23.25053,-12.01093 l 0,10.57844 8.15421,0 0,-60.27505 z m -31.7353,6.06056 c 13.22303,0 23.58109,10.35805 23.58109,23.80149 0,13.6638 -10.13768,24.35243 -23.14032,24.35243 -13.66382,0 -24.13206,-10.68863 -24.13206,-24.46262 0,-13.11285 10.57843,-23.6913 23.69129,-23.6913 z m -10.02749,-28.31935 0,13.8842 8.15423,0 0,-13.8842 -8.15423,0 z m 16.19824,0 0,13.8842 8.1542,0 0,-13.8842 -8.1542,0 z m -49.71038,22.25879 -8.15421,0 0,56.08775 c 0,12.56189 -3.08538,16.96956 -12.23131,17.52054 l 0,7.82363 c 5.28922,-0.22038 9.03575,-1.43251 12.67208,-4.07711 5.84017,-4.40768 7.71344,-9.47651 7.71344,-21.26706 l 0,-56.08775 z m -8.15421,-7.27267 8.15421,0 0,-13.8842 -8.15421,0 0,13.8842 z m -67.47886,67.54772 8.15421,0 0,-33.1678 c 0,-6.72172 0.88154,-10.24786 3.19558,-13.66382 3.19557,-4.62806 8.81536,-7.38287 15.20649,-7.38287 5.95038,0 11.3498,2.42423 14.65556,6.50134 2.86499,3.74653 3.96691,8.1542 3.96691,16.08803 l 0,31.62512 8.15421,0 0,-31.62512 c 0,-10.13765 -1.43249,-15.53708 -5.28923,-20.7161 -4.73826,-5.95037 -12.01091,-9.36632 -20.49573,-9.36632 -7.93381,0 -14.32495,3.08537 -19.39379,9.25613 l 0,-7.82364 -8.15421,0 0,60.27505 z M 193.73404,770.2999 c -17.85111,0 -31.62513,13.55361 -31.62513,31.18435 0,18.51226 13.55363,31.95568 32.28627,31.95568 17.63073,0 30.63339,-13.33322 30.63339,-31.40473 0,-18.40205 -13.22304,-31.7353 -31.29453,-31.7353 z m 0,7.49305 c 13.22303,0 23.03012,10.35805 23.03012,24.35245 0,13.774 -9.4765,23.80147 -22.58935,23.80147 -13.8842,0 -23.80149,-10.13766 -23.80149,-24.24225 0,-13.6638 10.02747,-23.91167 23.36072,-23.91167 z m -51.26342,54.21449 8.15422,0 0,-60.27505 -8.15422,0 0,60.27505 z m 0,-67.54772 8.15422,0 0,-13.8842 -8.15422,0 0,13.8842 z m -63.778813,67.54772 8.154224,0 0,-32.94742 15.647259,0 c 11.01922,0 16.96958,-1.4325 21.92823,-5.06883 5.28921,-3.85674 8.15421,-10.57844 8.15421,-18.73265 0,-9.36633 -3.52616,-16.74919 -9.6969,-20.38553 -5.06884,-3.08538 -11.23959,-4.29749 -21.70783,-4.29749 l -22.479193,0 0,81.43192 z m 8.154224,-40.33028 0,-33.71877 11.570169,0 c 9.36632,0 15.20649,0.77134 18.51225,2.42422 4.73826,2.42423 7.38287,7.60325 7.38287,14.87593 0,6.28094 -2.5344,11.34979 -6.72171,13.66382 -3.41595,1.98345 -8.15422,2.7548 -15.64727,2.7548 l -15.096309,0 z M 376.07705,194.44838 C 193.788,356.55308 272.49708,553.35888 405.56537,508.42199 467.11513,488.40066 525.37283,381.13804 410.8352,271.69711 453.46794,453.15965 282.33445,475.98494 376.07705,194.44838 Z m -5.8251,336.33482 -104.24023,19.10157 5.60937,30.61914 101.41407,-18.58203 99.73242,18.57421 5.69922,-30.60351 -102.56055,-19.10156 -5.6543,-0.008 z m 2.29102,-388.32226 c -81.05414,2.1e-4 -173.54763,11.4051 -226.95313,33.23633 l -2.96093,1.20898 0.29687,3.18555 c 14.55964,156.64887 13.03218,250.77357 37.26953,323.49609 24.23735,72.72252 74.56106,122.87724 190.41407,189.90234 l 2.16406,1.25196 2.16211,-1.25391 C 490.55624,626.46247 540.76293,576.30669 564.94141,503.58594 589.11988,430.86519 587.59417,336.7408 602.1543,180.0918 l 0.29687,-3.18555 -2.96289,-1.20898 C 546.08085,153.86632 453.58698,142.46094 372.54297,142.46094 Z m 0,8.63281 c 78.74962,0 169.08699,11.29834 220.73242,31.47852 C 579.0156,337.52624 580.00913,430.89979 556.74805,500.86133 533.47363,570.86297 486.04402,618.77042 372.76758,684.71094 259.25927,618.7691 211.71682,570.85781 188.38672,500.85742 165.07017,430.89773 166.06204,337.52612 151.80273,182.57227 203.44594,162.39165 293.78268,151.09396 372.54297,151.09375 Z" />
  </g>
</svg>
