<?xml version="1.0" encoding="UTF-8" standalone="no"?>
<!-- Created with Inkscape (http://www.inkscape.org/) -->

<svg
   xmlns:dc="http://purl.org/dc/elements/1.1/"
   xmlns:cc="http://creativecommons.org/ns#"
   xmlns:rdf="http://www.w3.org/1999/02/22-rdf-syntax-ns#"
   xmlns:svg="http://www.w3.org/2000/svg"
   xmlns="http://www.w3.org/2000/svg"
   xmlns:xlink="http://www.w3.org/1999/xlink"
   xmlns:sodipodi="http://sodipodi.sourceforge.net/DTD/sodipodi-0.dtd"
   xmlns:inkscape="http://www.inkscape.org/namespaces/inkscape"
   width="874.46753"
   height="1045.2423"
   id="svg2"
   sodipodi:version="0.32"
   inkscape:version="0.91 r13725"
   version="1.0"
   sodipodi:docname="logotype_sv.svg"
   inkscape:output_extension="org.inkscape.output.svg.inkscape"
   inkscape:export-filename="/home/smika/pionjar/lappar/planscher/plansch0/plansch0b-hires.png"
   inkscape:export-xdpi="300.01077"
   inkscape:export-ydpi="300.01077">
  <sodipodi:namedview
     id="base"
     pagecolor="#ffffff"
     bordercolor="#666666"
     borderopacity="1.0"
     gridtolerance="10000"
     guidetolerance="39.8"
     objecttolerance="10"
     inkscape:pageopacity="0.0"
     inkscape:pageshadow="2"
     inkscape:zoom="0.66386034"
     inkscape:cx="662.95756"
     inkscape:cy="410.27711"
     inkscape:document-units="px"
     inkscape:current-layer="layer1"
     width="744.09449px"
     height="1052.3622px"
     showguides="true"
     inkscape:guide-bbox="false"
     units="mm"
     inkscape:window-width="1280"
     inkscape:window-height="848"
     inkscape:window-x="160"
     inkscape:window-y="24"
     inkscape:grid-points="false"
     inkscape:guide-points="false"
     showgrid="false"
     inkscape:window-maximized="0"
     fit-margin-top="40"
     fit-margin-left="40"
     fit-margin-right="40"
     fit-margin-bottom="40" />
  <defs
     id="defs4">
    <inkscape:perspective
       sodipodi:type="inkscape:persp3d"
       id="perspective317"
       inkscape:vp_x="-50 : 600 : 1"
       inkscape:vp_y="0 : 1000 : 0"
       inkscape:vp_z="700 : 600 : 1"
       inkscape:persp3d-origin="300 : 400 : 1" />
    <defs
       id="defs552">
      <linearGradient
         id="linearGradient585">
        <stop
           offset="0"
           style="stop-color:#000;stop-opacity:1;"
           id="stop586" />
        <stop
           offset="1"
           style="stop-color:#fff;stop-opacity:1;"
           id="stop587" />
      </linearGradient>
      <radialGradient
         id="radialGradient588"
         xlink:href="#linearGradient585" />
      <linearGradient
         id="linearGradient636"
         xlink:href="#linearGradient585" />
      <linearGradient
         id="linearGradient637"
         xlink:href="#linearGradient585" />
      <defs
         id="defs683" />
      <sodipodi:namedview
         id="namedview691"
         gridtolerance="15px"
         guidetolerance="20px"
         snaptogrid="false"
         snaptoguides="true"
         showgrid="true"
         showborder="false">
        <sodipodi:guide
           id="guide563"
           orientation="vertical"
           position="-353.891418" />
        <sodipodi:guide
           id="guide564"
           orientation="vertical"
           position="-218.868240" />
        <sodipodi:guide
           id="guide565"
           orientation="vertical"
           position="-130.667603" />
        <sodipodi:guide
           id="guide566"
           orientation="vertical"
           position="-71.867180" />
        <sodipodi:guide
           id="guide567"
           orientation="vertical"
           position="-13.066760" />
        <sodipodi:guide
           id="guide568"
           orientation="vertical"
           position="75.133873" />
        <sodipodi:guide
           id="guide569"
           orientation="vertical"
           position="140.467667" />
        <sodipodi:guide
           id="guide570"
           orientation="vertical"
           position="211.813034" />
        <sodipodi:guide
           id="guide571"
           orientation="horizontal"
           position="921.206604" />
        <sodipodi:guide
           id="guide572"
           orientation="horizontal"
           position="852.614502" />
        <sodipodi:guide
           id="guide573"
           orientation="horizontal"
           position="638.093445" />
        <sodipodi:guide
           id="guide574"
           orientation="vertical"
           position="-285.290924" />
        <sodipodi:guide
           id="guide575"
           orientation="horizontal"
           position="697.982788" />
        <sodipodi:guide
           id="guide576"
           orientation="horizontal"
           position="580.381958" />
        <sodipodi:guide
           id="guide577"
           orientation="horizontal"
           position="492.181305" />
        <sodipodi:guide
           id="guide578"
           orientation="horizontal"
           position="426.847504" />
        <sodipodi:guide
           id="guide579"
           orientation="horizontal"
           position="354.980316" />
        <sodipodi:guide
           id="guide580"
           orientation="horizontal"
           position="786.183411" />
        <sodipodi:guide
           id="guide583"
           orientation="horizontal"
           position="1008.15594" />
        <sodipodi:guide
           id="guide584"
           orientation="vertical"
           position="-442.788116" />
        <sodipodi:guide
           id="guide585"
           orientation="horizontal"
           position="272.677429" />
        <sodipodi:guide
           id="guide586"
           orientation="vertical"
           position="295.192078" />
      </sodipodi:namedview>
    </defs>
  </defs>
  <metadata
     id="metadata7">
    <rdf:RDF>
      <cc:Work
         rdf:about="">
        <dc:format>image/svg+xml</dc:format>
        <dc:type
           rdf:resource="http://purl.org/dc/dcmitype/StillImage" />
        <dc:title></dc:title>
        <dc:date />
        <dc:creator>
          <cc:Agent>
            <dc:title />
          </cc:Agent>
        </dc:creator>
        <dc:rights>
          <cc:Agent>
            <dc:title />
          </cc:Agent>
        </dc:rights>
        <dc:publisher>
          <cc:Agent>
            <dc:title />
          </cc:Agent>
        </dc:publisher>
        <dc:identifier />
        <dc:source />
        <dc:relation />
        <dc:language />
        <dc:subject>
          <rdf:Bag />
        </dc:subject>
        <dc:coverage />
        <dc:description />
        <dc:contributor>
          <cc:Agent>
            <dc:title />
          </cc:Agent>
        </dc:contributor>
        <cc:license
           rdf:resource="" />
      </cc:Work>
      <cc:Work
         rdf:about="">
        <dc:format>image/svg+xml</dc:format>
        <dc:type
           rdf:resource="http://purl.org/dc/dcmitype/StillImage" />
      </cc:Work>
    </rdf:RDF>
  </metadata>
  <g
     inkscape:label="text_barnledar2008"
     style="display:inline"
     id="layer1"
     inkscape:groupmode="layer"
     transform="translate(64.579689,-0.72770055)">
    <g
       id="g2995"
       transform="matrix(2.9638241,0,0,2.9638241,792.84675,-28.153489)">
      <g
         transform="matrix(2.2403567,0,0,2.2403567,71.479022,-83.8194)"
         id="g5777"
         style="display:inline">
        <path
           id="path869"
           sodipodi:nodetypes="ccccc"
           d="m -95.169497,145.53144 c -34.794653,-20.12995 -29.577243,-29.57753 -33.967793,-76.815976 7.87045,-3.217301 21.78882,-4.957146 33.933633,-4.957177 12.143278,0 26.06167,1.739845 33.932427,4.957115 -4.390697,47.238478 0.826315,56.686048 -33.898267,76.816038 z"
           style="font-size:12px;fill:#f8f8ee;fill-opacity:0.6;fill-rule:evenodd;stroke:#92916e;stroke-width:1.3003186;stroke-miterlimit:4;stroke-opacity:1;stroke-dasharray:none"
           inkscape:connector-curvature="0" />
        <g
           id="g870"
           transform="matrix(0.491027,0,0,0.491027,-366.9415,-30.03795)"
           style="font-size:12px">
          <path
             id="path871"
             sodipodi:nodetypes="ccc"
             d="m 521.5932,319.3524 31.9715,-5.8585 31.4559,5.8585"
             style="font-size:12px;fill:none;stroke:#6a3121;stroke-width:9.5480442;stroke-linejoin:bevel"
             inkscape:connector-curvature="0" />
          <path
             id="path872"
             sodipodi:nodetypes="cscc"
             d="m 554.4909,205.6417 c -55.9095,49.7188 -31.7688,110.0807 9.0443,96.2982 18.8778,-6.1407 36.7459,-39.039 1.6163,-72.6054 13.0758,55.656 -39.4122,62.6567 -10.6606,-23.6928 z"
             style="font-size:12px;fill:#e32500;fill-rule:evenodd;stroke-width:0;stroke-linecap:round"
             inkscape:connector-curvature="0" />
        </g>
      </g>
      <g
         transform="matrix(0.4680587,0,0,0.4680587,-325.14299,225.76681)"
         id="g5399"
         style="display:inline">
        <g
           style="font-style:normal;font-variant:normal;font-weight:normal;font-stretch:normal;font-size:79.43235779px;line-height:125%;font-family:'URW Gothic L';text-align:start;writing-mode:lr-tb;text-anchor:start;fill:#92916e;fill-opacity:1;stroke:none"
           id="text947" />
        <g
           transform="scale(0.9898446,1.0102596)"
           style="font-style:normal;font-variant:normal;font-weight:normal;font-stretch:normal;font-size:29.97736168px;line-height:125%;font-family:'URW Gothic L';text-align:start;writing-mode:lr-tb;text-anchor:start;fill:#92916e;fill-opacity:1;stroke:none"
           id="text1301">
          <path
             id="path4246"
             style=""
             d="m 604.11866,181.39832 2.21833,0 0,-9.56278 c 0,-3.05769 1.55882,-4.73643 4.64649,-5.0362 l 0,-2.18835 c -2.36821,0.11991 -3.77715,0.9293 -4.64649,2.72794 l 0,-2.33823 -2.21833,0 0,16.39762 z m -3.79495,-16.39762 -2.21832,0 0,2.9078 c -1.61878,-2.27828 -3.62726,-3.29751 -6.47511,-3.29751 -4.91629,0 -8.63348,3.7172 -8.63348,8.63348 0,4.88631 3.74717,8.54355 8.78336,8.54355 2.7879,0 4.58654,-0.9293 6.32523,-3.26753 l 0,2.87783 2.21832,0 0,-16.39762 z m -8.63348,1.64875 c 3.59728,0 6.41516,2.81788 6.41516,6.47511 0,3.7172 -2.75792,6.625 -6.29525,6.625 -3.71719,0 -6.56504,-2.9078 -6.56504,-6.65497 0,-3.56731 2.87783,-6.44514 6.44513,-6.44514 z m -11.86588,-1.64875 -2.21832,0 0,2.9078 c -1.64876,-2.2483 -3.65724,-3.29751 -6.41516,-3.29751 -4.79638,0 -8.39366,3.7172 -8.39366,8.66346 0,4.79638 3.74717,8.51357 8.54355,8.51357 2.93778,0 4.97624,-1.19909 6.26527,-3.71719 l 0,1.10916 c 0,1.61878 -0.17987,2.63801 -0.6595,3.65724 -0.86935,1.88857 -2.84785,2.96776 -5.36595,2.96776 -1.82862,0 -3.23756,-0.53959 -4.40667,-1.64876 -0.56957,-0.50961 -0.89932,-0.98925 -1.61878,-2.2483 l -2.15837,0 c 1.19909,3.8371 4.1069,5.93552 8.24377,5.93552 2.84785,0 5.24604,-1.07919 6.65498,-2.93778 1.10916,-1.49887 1.52884,-3.23756 1.52884,-6.44514 l 0,-13.45983 z m -8.51357,1.64875 c 3.53733,0 6.29525,2.7879 6.29525,6.3552 0,3.83711 -2.69796,6.74491 -6.26527,6.74491 -3.59728,0 -6.29525,-2.84785 -6.29525,-6.65497 0,-3.74717 2.63801,-6.44514 6.26527,-6.44514 z m -26.1515,14.74887 2.21832,0 0,-9.02319 c 0,-1.82862 0.23982,-2.7879 0.86935,-3.71719 0.86934,-1.25905 2.39819,-2.00849 4.13687,-2.00849 1.61878,0 3.08767,0.65951 3.98699,1.76867 0.77941,1.01923 1.07919,2.21832 1.07919,4.37669 l 0,8.60351 2.21832,0 0,-8.60351 c 0,-2.75791 -0.3897,-4.22681 -1.43891,-5.63574 -1.28903,-1.61878 -3.26753,-2.54808 -5.57579,-2.54808 -2.15837,0 -3.89706,0.83937 -5.27602,2.5181 l 0,-2.12839 -2.21832,0 0,16.39762 z m -5.97205,0 2.21833,0 0,-16.39762 -2.21833,0 0,16.39762 z m 0,-18.37613 2.21833,0 0,-3.77714 -2.21833,0 0,3.77714 z m -18.26745,18.37613 2.21832,0 0,-9.02319 c 0,-1.82862 0.23982,-2.7879 0.86935,-3.71719 0.86934,-1.25905 2.39819,-2.00849 4.13687,-2.00849 1.61878,0 3.08767,0.65951 3.98699,1.76867 0.77941,1.01923 1.07919,2.21832 1.07919,4.37669 l 0,8.60351 2.21832,0 0,-8.60351 c 0,-2.75791 -0.3897,-4.22681 -1.43891,-5.63574 -1.28903,-1.61878 -3.26753,-2.54808 -5.57579,-2.54808 -2.15837,0 -3.89706,0.83937 -5.27602,2.5181 l 0,-2.12839 -2.21832,0 0,16.39762 z m -9.01663,0 2.21832,0 0,-9.56278 c 0,-3.05769 1.55882,-4.73643 4.64649,-5.0362 l 0,-2.18835 c -2.36821,0.11991 -3.77715,0.9293 -4.64649,2.72794 l 0,-2.33823 -2.21832,0 0,16.39762 z m -3.79495,-16.39762 -2.21833,0 0,2.9078 c -1.61878,-2.27828 -3.62726,-3.29751 -6.47511,-3.29751 -4.91629,0 -8.63348,3.7172 -8.63348,8.63348 0,4.88631 3.74717,8.54355 8.78337,8.54355 2.78789,0 4.58653,-0.9293 6.32522,-3.26753 l 0,2.87783 2.21833,0 0,-16.39762 z m -8.63348,1.64875 c 3.59728,0 6.41515,2.81788 6.41515,6.47511 0,3.7172 -2.75792,6.625 -6.29524,6.625 -3.7172,0 -6.56505,-2.9078 -6.56505,-6.65497 0,-3.56731 2.87783,-6.44514 6.44514,-6.44514 z m -2.72794,-7.70418 0,3.77715 2.21832,0 0,-3.77715 -2.21832,0 z m 4.40667,0 0,3.77715 2.21832,0 0,-3.77715 -2.21832,0 z m -13.54461,6.05543 -2.21833,0 0,2.9078 c -1.64875,-2.2483 -3.65724,-3.29751 -6.41515,-3.29751 -4.79638,0 -8.39366,3.7172 -8.39366,8.66346 0,4.79638 3.74717,8.51357 8.54354,8.51357 2.93779,0 4.97625,-1.19909 6.26527,-3.71719 l 0,1.10916 c 0,1.61878 -0.17986,2.63801 -0.6595,3.65724 -0.86934,1.88857 -2.84785,2.96776 -5.36595,2.96776 -1.82862,0 -3.23755,-0.53959 -4.40667,-1.64876 -0.56957,-0.50961 -0.89932,-0.98925 -1.61878,-2.2483 l -2.15837,0 c 1.1991,3.8371 4.1069,5.93552 8.24378,5.93552 2.84785,0 5.24604,-1.07919 6.65497,-2.93778 1.10916,-1.49887 1.52885,-3.23756 1.52885,-6.44514 l 0,-13.45983 z m -8.51357,1.64875 c 3.53733,0 6.29524,2.7879 6.29524,6.3552 0,3.83711 -2.69796,6.74491 -6.26527,6.74491 -3.59728,0 -6.29524,-2.84785 -6.29524,-6.65497 0,-3.74717 2.63801,-6.44514 6.26527,-6.44514 z m -19.99302,-1.64875 -2.21833,0 0,2.9078 c -1.61878,-2.27828 -3.62726,-3.29751 -6.47511,-3.29751 -4.91629,0 -8.63348,3.7172 -8.63348,8.63348 0,4.88631 3.74717,8.54355 8.78337,8.54355 2.78789,0 4.58653,-0.9293 6.32522,-3.26753 l 0,2.87783 2.21833,0 0,-16.39762 z m -8.63348,1.64875 c 3.59728,0 6.41515,2.81788 6.41515,6.47511 0,3.7172 -2.75792,6.625 -6.29525,6.625 -3.71719,0 -6.56504,-2.9078 -6.56504,-6.65497 0,-3.56731 2.87783,-6.44514 6.44514,-6.44514 z m -11.85747,-7.4044 -2.21833,0 0,8.36368 c -1.61878,-1.94853 -3.86708,-2.99774 -6.44513,-2.99774 -4.94627,0 -8.72341,3.7172 -8.72341,8.60351 0,4.85633 3.86708,8.57352 8.93325,8.57352 2.72794,0 4.58654,-0.98925 6.23529,-3.35746 l 0,2.96776 2.21833,0 0,-22.15327 z m -8.72342,7.4044 c 3.62727,0 6.59502,2.90781 6.59502,6.50509 0,3.59728 -2.87782,6.59502 -6.38517,6.59502 -3.74717,0 -6.625,-2.87783 -6.625,-6.625 0,-3.59728 2.84785,-6.47511 6.41515,-6.47511 z m -19.67404,-2.03846 c -4.85633,0 -8.6035,3.68722 -8.6035,8.4836 0,5.03619 3.68721,8.69343 8.78336,8.69343 4.79638,0 8.33371,-3.62726 8.33371,-8.54355 0,-5.00622 -3.59728,-8.63348 -8.51357,-8.63348 z m 0,2.03846 c 3.59728,0 6.26527,2.81788 6.26527,6.625 0,3.74717 -2.57805,6.47511 -6.14536,6.47511 -3.77715,0 -6.47511,-2.75792 -6.47511,-6.59502 0,-3.71719 2.72794,-6.50509 6.3552,-6.50509 z m -11.77595,-1.64875 -2.21832,0 0,2.9078 c -1.64876,-2.2483 -3.65724,-3.29751 -6.41516,-3.29751 -4.79637,0 -8.39366,3.7172 -8.39366,8.66346 0,4.79638 3.74717,8.51357 8.54355,8.51357 2.93778,0 4.97624,-1.19909 6.26527,-3.71719 l 0,1.10916 c 0,1.61878 -0.17987,2.63801 -0.6595,3.65724 -0.86935,1.88857 -2.84785,2.96776 -5.36595,2.96776 -1.82862,0 -3.23756,-0.53959 -4.40667,-1.64876 -0.56957,-0.50961 -0.89932,-0.98925 -1.61878,-2.2483 l -2.15837,0 c 1.19909,3.8371 4.1069,5.93552 8.24377,5.93552 2.84785,0 5.24604,-1.07919 6.65498,-2.93778 1.10916,-1.49887 1.52884,-3.23756 1.52884,-6.44514 l 0,-13.45983 z m -8.51357,1.64875 c 3.53733,0 6.29525,2.7879 6.29525,6.3552 0,3.83711 -2.69796,6.74491 -6.26527,6.74491 -3.59728,0 -6.29525,-2.84785 -6.29525,-6.65497 0,-3.74717 2.63801,-6.44514 6.26527,-6.44514 z m -25.21472,14.74887 2.21833,0 0,-9.56278 c 0,-3.05769 1.55882,-4.73643 4.64649,-5.0362 l 0,-2.18835 c -2.36821,0.11991 -3.77715,0.9293 -4.64649,2.72794 l 0,-2.33823 -2.21833,0 0,16.39762 z m -11.64011,-16.78733 c -4.85633,0 -8.6035,3.68722 -8.6035,8.4836 0,5.03619 3.68721,8.69343 8.78337,8.69343 4.79637,0 8.3337,-3.62726 8.3337,-8.54355 0,-5.00622 -3.59728,-8.63348 -8.51357,-8.63348 z m 0,2.03846 c 3.59729,0 6.26527,2.81788 6.26527,6.625 0,3.74717 -2.57805,6.47511 -6.14536,6.47511 -3.77715,0 -6.47511,-2.75792 -6.47511,-6.59502 0,-3.71719 2.72794,-6.50509 6.3552,-6.50509 z m -3.35746,-7.70418 0,3.77715 2.21832,0 0,-3.77715 -2.21832,0 z m 4.40667,0 0,3.77715 2.21832,0 0,-3.77715 -2.21832,0 z m -17.31051,22.45305 2.21832,0 0,-14.38914 4.07692,0 0,-2.00848 -4.07692,0 c -0.03,-2.72794 1.04921,-3.71719 4.07692,-3.74717 l 0,-2.00848 c -4.22681,0 -6.3552,1.94852 -6.29524,5.75565 l -2.54808,0 0,2.00848 2.54808,0 0,14.38914 z m -21.0933,-16.78733 c -4.85633,0 -8.6035,3.68722 -8.6035,8.4836 0,5.03619 3.68722,8.69343 8.78337,8.69343 4.79637,0 8.3337,-3.62726 8.3337,-8.54355 0,-5.00622 -3.59728,-8.63348 -8.51357,-8.63348 z m 0,2.03846 c 3.59729,0 6.26527,2.81788 6.26527,6.625 0,3.74717 -2.57805,6.47511 -6.14536,6.47511 -3.77715,0 -6.47511,-2.75792 -6.47511,-6.59502 0,-3.71719 2.72794,-6.50509 6.3552,-6.50509 z m -11.76752,-7.4044 -2.21832,0 0,8.36368 c -1.61878,-1.94853 -3.86708,-2.99774 -6.44514,-2.99774 -4.94626,0 -8.72341,3.7172 -8.72341,8.60351 0,4.85633 3.86708,8.57352 8.93326,8.57352 2.72794,0 4.58653,-0.98925 6.23529,-3.35746 l 0,2.96776 2.21832,0 0,-22.15327 z m -8.72341,7.4044 c 3.62726,0 6.59502,2.90781 6.59502,6.50509 0,3.59728 -2.87783,6.59502 -6.38518,6.59502 -3.74717,0 -6.625,-2.87783 -6.625,-6.625 0,-3.59728 2.84785,-6.47511 6.41516,-6.47511 z m -11.10333,7.2845 c 0,-2.2483 -0.29978,-3.62726 -1.10917,-5.06617 -1.46889,-2.60803 -4.31674,-4.25679 -7.43438,-4.25679 -4.7664,0 -8.51357,3.74717 -8.51357,8.51357 0,4.85634 3.80712,8.66346 8.66346,8.66346 2.09841,0 4.07692,-0.77941 5.57578,-2.18835 1.16912,-1.10916 1.94853,-2.2483 2.39819,-3.59728 l -2.30825,0 c -0.9293,2.2483 -3.23756,3.74717 -5.72568,3.74717 -3.35746,0 -6.20531,-2.57805 -6.38518,-5.81561 l 14.8388,0 z m -14.77884,-2.00848 c 0.59954,-3.14762 3.08767,-5.27602 6.20531,-5.27602 3.1776,0 5.60577,2.00849 6.3552,5.27602 l -12.56051,0 z m -10.66539,9.47285 2.21833,0 0,-9.56278 c 0,-3.05769 1.55882,-4.73643 4.64649,-5.0362 l 0,-2.18835 c -2.36822,0.11991 -3.77715,0.9293 -4.64649,2.72794 l 0,-2.33823 -2.21833,0 0,16.39762 z m -12.10757,-22.15327 -2.21832,0 0,8.36368 c -1.61878,-1.94853 -3.86708,-2.99774 -6.44514,-2.99774 -4.94626,0 -8.72341,3.7172 -8.72341,8.60351 0,4.85633 3.86708,8.57352 8.93326,8.57352 2.72794,0 4.58653,-0.98925 6.23529,-3.35746 l 0,2.96776 2.21832,0 0,-22.15327 z m -8.72341,7.4044 c 3.62726,0 6.59502,2.90781 6.59502,6.50509 0,3.59728 -2.87783,6.59502 -6.38518,6.59502 -3.74717,0 -6.625,-2.87783 -6.625,-6.625 0,-3.59728 2.84785,-6.47511 6.41516,-6.47511 z m -14.00599,14.74887 2.21833,0 0,-16.39762 -2.21833,0 0,16.39762 z m 0,-18.37613 2.21833,0 0,-3.77714 -2.21833,0 0,3.77714 z m -8.17914,18.37613 2.21833,0 0,-14.38914 3.68721,0 0,-2.00848 -3.68721,0 0,-5.75565 -2.21833,0 0,5.75565 -3.53732,0 0,2.00848 3.53732,0 0,14.38914 z m -7.98053,0 2.21833,0 0,-22.15327 -2.21833,0 0,22.15327 z m -5.97205,0 2.21832,0 0,-22.15327 -2.21832,0 0,22.15327 z m -3.79495,-16.39762 -2.21832,0 0,2.9078 c -1.61878,-2.27828 -3.62726,-3.29751 -6.47511,-3.29751 -4.91629,0 -8.63348,3.7172 -8.63348,8.63348 0,4.88631 3.74717,8.54355 8.78336,8.54355 2.7879,0 4.58654,-0.9293 6.32523,-3.26753 l 0,2.87783 2.21832,0 0,-16.39762 z m -8.63348,1.64875 c 3.59728,0 6.41516,2.81788 6.41516,6.47511 0,3.7172 -2.75792,6.625 -6.29525,6.625 -3.71719,0 -6.56504,-2.9078 -6.56504,-6.65497 0,-3.56731 2.87783,-6.44514 6.44513,-6.44514 z m 421.48851,-73.352993 -5.93829,0 0,7.626693 c -4.33336,-5.975554 -9.70993,-8.648828 -17.33342,-8.648828 -13.16056,0 -23.11123,9.749588 -23.11123,22.644198 0,12.81599 10.03091,22.40832 23.51246,22.40832 7.463,0 12.27784,-2.43739 16.93219,-8.5702 l 0,7.54807 5.93829,0 0,-43.008253 z m -23.11122,4.324412 c 9.62967,0 17.17293,7.390811 17.17293,16.983151 0,9.74958 -7.38276,17.37627 -16.85194,17.37627 -9.95067,0 -17.57417,-7.62669 -17.57417,-17.45489 0,-9.35646 7.70375,-16.904531 17.25318,-16.904531 z m -70.48725,38.683841 5.93831,0 0,-23.66633 c 0,-4.79617 0.64198,-7.31219 2.32717,-9.74959 2.32716,-3.302278 6.41978,-5.267921 11.07412,-5.267921 4.33336,0 8.26547,1.729763 10.6729,4.638921 2.08643,2.67327 2.8889,5.81829 2.8889,11.47934 l 0,22.56558 5.93829,0 0,-22.56558 c 0,-7.23355 -1.04321,-11.08622 -3.85186,-14.781624 -3.45064,-4.245787 -8.74696,-6.683184 -14.926,-6.683184 -5.77781,0 -10.43215,2.20152 -14.12352,6.604558 l 0,-5.582423 -5.93831,0 0,43.008253 z m -24.13687,0 5.9383,0 0,-25.08159 c 0,-8.01982 4.17286,-12.422865 12.43833,-13.209122 l 0,-5.739676 c -6.33954,0.314503 -10.11116,2.437397 -12.43833,7.154934 l 0,-6.132799 -5.9383,0 0,43.008253 z m -8.21656,-19.5778 c 0,-5.89692 -0.80247,-9.5137 -2.96914,-13.28774 -3.93213,-6.840434 -11.55562,-11.164848 -19.90134,-11.164848 -12.75932,0 -22.79023,9.828208 -22.79023,22.329698 0,12.73736 10.1914,22.72282 23.19147,22.72282 5.61731,0 10.91363,-2.04427 14.92599,-5.73967 3.12965,-2.90915 5.21608,-5.89693 6.41979,-9.43508 l -6.17904,0 c -2.48766,5.89692 -8.66671,9.8282 -15.32723,9.8282 -8.98771,0 -16.6112,-6.7618 -17.09268,-15.25338 l 39.72241,0 z M 445.25397,111.459 c 1.60495,-8.2557 8.26547,-13.838131 16.6112,-13.838131 8.50621,0 15.00624,5.267921 17.01242,13.838131 l -33.62362,0 z m -28.55049,24.84571 5.93831,0 0,-25.08159 c 0,-8.01982 4.17285,-12.422865 12.43832,-13.209122 l 0,-5.739676 c -6.33953,0.314503 -10.11116,2.437397 -12.43832,7.154934 l 0,-6.132799 -5.93831,0 0,43.008253 z m -10.15881,-43.008253 -5.9383,0 0,7.626693 c -4.33336,-5.975554 -9.70992,-8.648828 -17.33342,-8.648828 -13.16055,0 -23.11122,9.749588 -23.11122,22.644198 0,12.81599 10.03091,22.40832 23.51245,22.40832 7.463,0 12.27784,-2.43739 16.93219,-8.5702 l 0,7.54807 5.9383,0 0,-43.008253 z m -23.11122,4.324412 c 9.62967,0 17.17292,7.390811 17.17292,16.983151 0,9.74958 -7.38276,17.37627 -16.85193,17.37627 -9.95067,0 -17.57416,-7.62669 -17.57416,-17.45489 0,-9.35646 7.70374,-16.904531 17.25317,-16.904531 z m -7.30251,-20.206802 0,9.906836 5.93831,0 0,-9.906836 -5.93831,0 z m 11.79636,0 0,9.906836 5.93829,0 0,-9.906836 -5.93829,0 z m -36.20156,15.88239 -5.9383,0 0,40.020473 c 0,8.96333 -2.24693,12.10835 -8.90745,12.50149 l 0,5.58242 c 3.85187,-0.15725 6.58028,-1.02214 9.22844,-2.90915 4.2531,-3.14503 5.61731,-6.76181 5.61731,-15.17476 l 0,-40.020473 z m -5.9383,-5.189296 5.9383,0 0,-9.906837 -5.9383,0 0,9.906837 z m -49.14145,48.197549 5.9383,0 0,-23.66633 c 0,-4.79617 0.64198,-7.31219 2.32718,-9.74959 2.32717,-3.302278 6.41978,-5.267921 11.07412,-5.267921 4.33336,0 8.26548,1.729763 10.6729,4.638921 2.08643,2.67327 2.8889,5.81829 2.8889,11.47934 l 0,22.56558 5.9383,0 0,-22.56558 c 0,-7.23355 -1.04321,-11.08622 -3.85188,-14.781624 -3.45063,-4.245787 -8.74694,-6.683184 -14.926,-6.683184 -5.7778,0 -10.43214,2.20152 -14.12352,6.604558 l 0,-5.582423 -5.9383,0 0,43.008253 z M 265.48622,92.274322 c -13.00006,0 -23.03098,9.670958 -23.03098,22.251078 0,13.20911 9.87042,22.80144 23.51246,22.80144 12.83957,0 22.30875,-9.5137 22.30875,-22.40832 0,-13.13048 -9.62967,-22.644198 -22.79023,-22.644198 z m 0,5.346547 c 9.62967,0 16.77168,7.390811 16.77168,17.376281 0,9.82821 -6.90126,16.98314 -16.45069,16.98314 -10.11116,0 -17.33342,-7.23356 -17.33342,-17.29765 0,-9.74958 7.3025,-17.061771 17.01243,-17.061771 z m -37.33256,38.683841 5.93831,0 0,-43.008253 -5.93831,0 0,43.008253 z m 0,-48.197549 5.93831,0 0,-9.906837 -5.93831,0 0,9.906837 z m -46.44689,48.197549 5.93831,0 0,-23.50908 11.39511,0 c 8.02474,0 12.35809,-1.02214 15.96922,-3.61678 3.85187,-2.75191 5.9383,-7.54807 5.9383,-13.366372 0,-6.683183 -2.56792,-11.951104 -7.06176,-14.545752 -3.69138,-2.201519 -8.18523,-3.066402 -15.80872,-3.066402 l -16.37046,0 0,58.104386 z m 5.93831,-28.777 0,-24.059465 8.42597,0 c 6.82102,0 11.07412,0.55038 13.48154,1.729765 3.45063,1.729766 5.37657,5.425172 5.37657,10.614468 0,4.481662 -1.84568,8.098452 -4.89508,9.749592 -2.48767,1.41526 -5.93831,1.96564 -11.39512,1.96564 l -10.99388,0 z" />
        </g>
      </g>
    </g>
  </g>
</svg>
